<svg width="68" height="44" viewBox="0 0 68 44" fill="none" xmlns="http://www.w3.org/2000/svg">
<g filter="url(#filter0_d)">
<rect x="7" y="7" width="54" height="30" rx="7" fill="#00A7DD"/>
<path d="M29.4766 23.8418C29.3535 24.8945 28.9639 25.708 28.3076 26.2822C27.6559 26.8519 26.7878 27.1367 25.7031 27.1367C24.5273 27.1367 23.584 26.7152 22.873 25.8721C22.1667 25.029 21.8135 23.901 21.8135 22.4883V21.5312C21.8135 20.6061 21.9775 19.7926 22.3057 19.0908C22.6383 18.389 23.1077 17.8512 23.7139 17.4775C24.32 17.0993 25.0218 16.9102 25.8193 16.9102C26.8766 16.9102 27.7243 17.2064 28.3623 17.7988C29.0003 18.3867 29.3717 19.2025 29.4766 20.2461H28.1572C28.0433 19.4531 27.7949 18.8789 27.4121 18.5234C27.0339 18.168 26.5029 17.9902 25.8193 17.9902C24.9808 17.9902 24.3223 18.3001 23.8438 18.9199C23.3698 19.5397 23.1328 20.4215 23.1328 21.5654V22.5293C23.1328 23.6094 23.3584 24.4684 23.8096 25.1064C24.2607 25.7445 24.8919 26.0635 25.7031 26.0635C26.4323 26.0635 26.9906 25.8994 27.3779 25.5713C27.7699 25.2386 28.0296 24.6621 28.1572 23.8418H29.4766ZM34.207 22.5635C33.0814 22.2399 32.2611 21.8434 31.7461 21.374C31.2357 20.9001 30.9805 20.3167 30.9805 19.624C30.9805 18.8402 31.2926 18.193 31.917 17.6826C32.5459 17.1676 33.3617 16.9102 34.3643 16.9102C35.0479 16.9102 35.6562 17.0423 36.1895 17.3066C36.7272 17.571 37.1419 17.9355 37.4336 18.4004C37.7298 18.8652 37.8779 19.3734 37.8779 19.9248H36.5586C36.5586 19.3232 36.3672 18.8516 35.9844 18.5098C35.6016 18.1634 35.0615 17.9902 34.3643 17.9902C33.7171 17.9902 33.2113 18.1338 32.8467 18.4209C32.4867 18.7035 32.3066 19.0977 32.3066 19.6035C32.3066 20.0091 32.4775 20.3532 32.8193 20.6357C33.1657 20.9137 33.7513 21.1689 34.5762 21.4014C35.4056 21.6338 36.0527 21.8913 36.5176 22.1738C36.987 22.4518 37.3333 22.7777 37.5566 23.1514C37.7845 23.5251 37.8984 23.9648 37.8984 24.4707C37.8984 25.2773 37.584 25.9245 36.9551 26.4121C36.3262 26.8952 35.4854 27.1367 34.4326 27.1367C33.749 27.1367 33.111 27.0068 32.5186 26.7471C31.9261 26.4827 31.4681 26.1227 31.1445 25.667C30.8255 25.2113 30.666 24.694 30.666 24.1152H31.9854C31.9854 24.7168 32.2064 25.193 32.6484 25.5439C33.0951 25.8903 33.6898 26.0635 34.4326 26.0635C35.1253 26.0635 35.6562 25.9222 36.0254 25.6396C36.3945 25.3571 36.5791 24.972 36.5791 24.4844C36.5791 23.9967 36.4082 23.6208 36.0664 23.3564C35.7246 23.0876 35.1048 22.8232 34.207 22.5635ZM42.5195 22.5635C41.3939 22.2399 40.5736 21.8434 40.0586 21.374C39.5482 20.9001 39.293 20.3167 39.293 19.624C39.293 18.8402 39.6051 18.193 40.2295 17.6826C40.8584 17.1676 41.6742 16.9102 42.6768 16.9102C43.3604 16.9102 43.9688 17.0423 44.502 17.3066C45.0397 17.571 45.4544 17.9355 45.7461 18.4004C46.0423 18.8652 46.1904 19.3734 46.1904 19.9248H44.8711C44.8711 19.3232 44.6797 18.8516 44.2969 18.5098C43.9141 18.1634 43.374 17.9902 42.6768 17.9902C42.0296 17.9902 41.5238 18.1338 41.1592 18.4209C40.7992 18.7035 40.6191 19.0977 40.6191 19.6035C40.6191 20.0091 40.79 20.3532 41.1318 20.6357C41.4782 20.9137 42.0638 21.1689 42.8887 21.4014C43.7181 21.6338 44.3652 21.8913 44.8301 22.1738C45.2995 22.4518 45.6458 22.7777 45.8691 23.1514C46.097 23.5251 46.2109 23.9648 46.2109 24.4707C46.2109 25.2773 45.8965 25.9245 45.2676 26.4121C44.6387 26.8952 43.7979 27.1367 42.7451 27.1367C42.0615 27.1367 41.4235 27.0068 40.8311 26.7471C40.2386 26.4827 39.7806 26.1227 39.457 25.667C39.138 25.2113 38.9785 24.694 38.9785 24.1152H40.2979C40.2979 24.7168 40.5189 25.193 40.9609 25.5439C41.4076 25.8903 42.0023 26.0635 42.7451 26.0635C43.4378 26.0635 43.9688 25.9222 44.3379 25.6396C44.707 25.3571 44.8916 24.972 44.8916 24.4844C44.8916 23.9967 44.7207 23.6208 44.3789 23.3564C44.0371 23.0876 43.4173 22.8232 42.5195 22.5635Z" fill="white"/>
</g>
<defs>
<filter id="filter0_d" x="0" y="0" width="68" height="44" filterUnits="userSpaceOnUse" color-interpolation-filters="sRGB">
<feFlood flood-opacity="0" result="BackgroundImageFix"/>
<feColorMatrix in="SourceAlpha" type="matrix" values="0 0 0 0 0 0 0 0 0 0 0 0 0 0 0 0 0 0 127 0"/>
<feOffset/>
<feGaussianBlur stdDeviation="3.5"/>
<feColorMatrix type="matrix" values="0 0 0 0 0 0 0 0 0 0 0 0 0 0 0 0 0 0 0.14 0"/>
<feBlend mode="normal" in2="BackgroundImageFix" result="effect1_dropShadow"/>
<feBlend mode="normal" in="SourceGraphic" in2="effect1_dropShadow" result="shape"/>
</filter>
</defs>
</svg>