<svg width="92" height="44" viewBox="0 0 92 44" fill="none" xmlns="http://www.w3.org/2000/svg">
<g filter="url(#filter0_d)">
<rect x="7" y="7" width="78" height="30" rx="7" fill="#353535"/>
<path d="M27.7812 22.3994H23.4678V25.9268H28.4785V27H22.1553V17.0469H28.4102V18.127H23.4678V21.3262H27.7812V22.3994ZM32.3955 22.3037L34.0361 19.6035H35.5127L33.0928 23.2607L35.5879 27H34.125L32.416 24.2314L30.707 27H29.2373L31.7324 23.2607L29.3125 19.6035H30.7754L32.3955 22.3037ZM43.1074 23.3838C43.1074 24.5094 42.8499 25.4163 42.335 26.1045C41.82 26.7926 41.1227 27.1367 40.2432 27.1367C39.3454 27.1367 38.639 26.8519 38.124 26.2822V29.8438H36.8594V19.6035H38.0146L38.0762 20.4238C38.5911 19.7858 39.3066 19.4668 40.2227 19.4668C41.1113 19.4668 41.8132 19.8018 42.3281 20.4717C42.8477 21.1416 43.1074 22.0736 43.1074 23.2676V23.3838ZM41.8428 23.2402C41.8428 22.4062 41.665 21.7477 41.3096 21.2646C40.9541 20.7816 40.4665 20.54 39.8467 20.54C39.0811 20.54 38.5068 20.8796 38.124 21.5586V25.0928C38.5023 25.7673 39.0811 26.1045 39.8604 26.1045C40.4665 26.1045 40.9473 25.8652 41.3027 25.3867C41.6628 24.9036 41.8428 24.1882 41.8428 23.2402ZM48.2959 20.7383C48.1045 20.7064 47.8971 20.6904 47.6738 20.6904C46.8444 20.6904 46.2816 21.0436 45.9854 21.75V27H44.7207V19.6035H45.9512L45.9717 20.458C46.3864 19.7972 46.9743 19.4668 47.7354 19.4668C47.9814 19.4668 48.1683 19.4987 48.2959 19.5625V20.7383ZM52.3975 27.1367C51.3949 27.1367 50.5791 26.8086 49.9502 26.1523C49.3213 25.4915 49.0068 24.6097 49.0068 23.5068V23.2744C49.0068 22.5407 49.1458 21.8867 49.4238 21.3125C49.7064 20.7337 50.0983 20.2826 50.5996 19.959C51.1055 19.6309 51.6523 19.4668 52.2402 19.4668C53.2018 19.4668 53.9492 19.7835 54.4824 20.417C55.0156 21.0505 55.2822 21.9574 55.2822 23.1377V23.6641H50.2715C50.2897 24.3932 50.5016 24.9834 50.9072 25.4346C51.3174 25.8812 51.8369 26.1045 52.4658 26.1045C52.9124 26.1045 53.2907 26.0133 53.6006 25.8311C53.9105 25.6488 54.1816 25.4072 54.4141 25.1064L55.1865 25.708C54.5667 26.6605 53.637 27.1367 52.3975 27.1367ZM52.2402 20.5059C51.7298 20.5059 51.3014 20.6927 50.9551 21.0664C50.6087 21.4355 50.3945 21.9551 50.3125 22.625H54.0176V22.5293C53.9811 21.8867 53.8079 21.39 53.498 21.0391C53.1882 20.6836 52.7689 20.5059 52.2402 20.5059ZM61.0586 25.0381C61.0586 24.6963 60.9287 24.432 60.6689 24.2451C60.4137 24.0537 59.9648 23.8896 59.3223 23.7529C58.6842 23.6162 58.1761 23.4521 57.7979 23.2607C57.4242 23.0693 57.1462 22.8415 56.9639 22.5771C56.7861 22.3128 56.6973 21.9984 56.6973 21.6338C56.6973 21.0277 56.9525 20.515 57.4629 20.0957C57.9779 19.6764 58.6341 19.4668 59.4316 19.4668C60.2702 19.4668 60.9492 19.6833 61.4688 20.1162C61.9928 20.5492 62.2549 21.1029 62.2549 21.7773H60.9834C60.9834 21.431 60.8353 21.1325 60.5391 20.8818C60.2474 20.6312 59.8783 20.5059 59.4316 20.5059C58.9714 20.5059 58.6113 20.6061 58.3516 20.8066C58.0918 21.0072 57.9619 21.2692 57.9619 21.5928C57.9619 21.8981 58.0827 22.1283 58.3242 22.2832C58.5658 22.4382 59.001 22.5863 59.6299 22.7275C60.2633 22.8688 60.776 23.0374 61.168 23.2334C61.5599 23.4294 61.8493 23.6663 62.0361 23.9443C62.2275 24.2178 62.3232 24.5527 62.3232 24.9492C62.3232 25.61 62.0589 26.141 61.5303 26.542C61.0016 26.9385 60.3158 27.1367 59.4727 27.1367C58.8802 27.1367 58.3561 27.0319 57.9004 26.8223C57.4447 26.6126 57.0869 26.321 56.8271 25.9473C56.5719 25.569 56.4443 25.1611 56.4443 24.7236H57.709C57.7318 25.1475 57.9004 25.4847 58.2148 25.7354C58.5339 25.9814 58.9531 26.1045 59.4727 26.1045C59.9512 26.1045 60.334 26.0088 60.6211 25.8174C60.9128 25.6214 61.0586 25.3617 61.0586 25.0381ZM68.2773 25.0381C68.2773 24.6963 68.1475 24.432 67.8877 24.2451C67.6325 24.0537 67.1836 23.8896 66.541 23.7529C65.903 23.6162 65.3949 23.4521 65.0166 23.2607C64.6429 23.0693 64.3649 22.8415 64.1826 22.5771C64.0049 22.3128 63.916 21.9984 63.916 21.6338C63.916 21.0277 64.1712 20.515 64.6816 20.0957C65.1966 19.6764 65.8529 19.4668 66.6504 19.4668C67.4889 19.4668 68.168 19.6833 68.6875 20.1162C69.2116 20.5492 69.4736 21.1029 69.4736 21.7773H68.2021C68.2021 21.431 68.054 21.1325 67.7578 20.8818C67.4661 20.6312 67.097 20.5059 66.6504 20.5059C66.1901 20.5059 65.8301 20.6061 65.5703 20.8066C65.3105 21.0072 65.1807 21.2692 65.1807 21.5928C65.1807 21.8981 65.3014 22.1283 65.543 22.2832C65.7845 22.4382 66.2197 22.5863 66.8486 22.7275C67.4821 22.8688 67.9948 23.0374 68.3867 23.2334C68.7786 23.4294 69.068 23.6663 69.2549 23.9443C69.4463 24.2178 69.542 24.5527 69.542 24.9492C69.542 25.61 69.2777 26.141 68.749 26.542C68.2204 26.9385 67.5345 27.1367 66.6914 27.1367C66.099 27.1367 65.5749 27.0319 65.1191 26.8223C64.6634 26.6126 64.3057 26.321 64.0459 25.9473C63.7907 25.569 63.6631 25.1611 63.6631 24.7236H64.9277C64.9505 25.1475 65.1191 25.4847 65.4336 25.7354C65.7526 25.9814 66.1719 26.1045 66.6914 26.1045C67.1699 26.1045 67.5527 26.0088 67.8398 25.8174C68.1315 25.6214 68.2773 25.3617 68.2773 25.0381Z" fill="white"/>
</g>
<defs>
<filter id="filter0_d" x="0" y="0" width="92" height="44" filterUnits="userSpaceOnUse" color-interpolation-filters="sRGB">
<feFlood flood-opacity="0" result="BackgroundImageFix"/>
<feColorMatrix in="SourceAlpha" type="matrix" values="0 0 0 0 0 0 0 0 0 0 0 0 0 0 0 0 0 0 127 0"/>
<feOffset/>
<feGaussianBlur stdDeviation="3.5"/>
<feColorMatrix type="matrix" values="0 0 0 0 0 0 0 0 0 0 0 0 0 0 0 0 0 0 0.14 0"/>
<feBlend mode="normal" in2="BackgroundImageFix" result="effect1_dropShadow"/>
<feBlend mode="normal" in="SourceGraphic" in2="effect1_dropShadow" result="shape"/>
</filter>
</defs>
</svg>