<svg width="80" height="44" viewBox="0 0 80 44" fill="none" xmlns="http://www.w3.org/2000/svg">
<g filter="url(#filter0_d)">
<rect x="7" y="7" width="66" height="30" rx="7" fill="#F16529"/>
<path d="M29.8047 27H28.4854V22.3994H23.4678V27H22.1553V17.0469H23.4678V21.3262H28.4854V17.0469H29.8047V27ZM38.8076 18.127H35.6084V27H34.3027V18.127H31.1104V17.0469H38.8076V18.127ZM41.9795 17.0469L45.2334 25.168L48.4873 17.0469H50.1895V27H48.877V23.124L49 18.9404L45.7324 27H44.7275L41.4668 18.9609L41.5967 23.124V27H40.2842V17.0469H41.9795ZM53.8262 25.9268H58.543V27H52.5068V17.0469H53.8262V25.9268Z" fill="white"/>
</g>
<defs>
<filter id="filter0_d" x="0" y="0" width="80" height="44" filterUnits="userSpaceOnUse" color-interpolation-filters="sRGB">
<feFlood flood-opacity="0" result="BackgroundImageFix"/>
<feColorMatrix in="SourceAlpha" type="matrix" values="0 0 0 0 0 0 0 0 0 0 0 0 0 0 0 0 0 0 127 0"/>
<feOffset/>
<feGaussianBlur stdDeviation="3.5"/>
<feColorMatrix type="matrix" values="0 0 0 0 0 0 0 0 0 0 0 0 0 0 0 0 0 0 0.14 0"/>
<feBlend mode="normal" in2="BackgroundImageFix" result="effect1_dropShadow"/>
<feBlend mode="normal" in="SourceGraphic" in2="effect1_dropShadow" result="shape"/>
</filter>
</defs>
</svg>