<svg width="108" height="44" viewBox="0 0 108 44" fill="none" xmlns="http://www.w3.org/2000/svg">
<g filter="url(#filter0_d)">
<rect x="7" y="7" width="94" height="30" rx="7" fill="#F0DB4F"/>
<path d="M26.3252 17.0469H27.6445V24.0947C27.6445 25.0472 27.3574 25.7923 26.7832 26.3301C26.2135 26.8678 25.4525 27.1367 24.5 27.1367C23.5111 27.1367 22.7409 26.8838 22.1895 26.3779C21.638 25.8721 21.3623 25.1634 21.3623 24.252H22.6748C22.6748 24.8216 22.8298 25.266 23.1396 25.585C23.4541 25.904 23.9076 26.0635 24.5 26.0635C25.0423 26.0635 25.4798 25.8926 25.8125 25.5508C26.1497 25.209 26.3206 24.7305 26.3252 24.1152V17.0469ZM34.248 27C34.1751 26.8542 34.1159 26.5944 34.0703 26.2207C33.4824 26.8314 32.7806 27.1367 31.9648 27.1367C31.2357 27.1367 30.6364 26.9316 30.167 26.5215C29.7021 26.1068 29.4697 25.5827 29.4697 24.9492C29.4697 24.179 29.7614 23.582 30.3447 23.1582C30.9326 22.7298 31.7575 22.5156 32.8193 22.5156H34.0498V21.9346C34.0498 21.4925 33.9176 21.1416 33.6533 20.8818C33.389 20.6175 32.9993 20.4854 32.4844 20.4854C32.0332 20.4854 31.6549 20.5993 31.3496 20.8271C31.0443 21.055 30.8916 21.3307 30.8916 21.6543H29.6201C29.6201 21.2852 29.75 20.9297 30.0098 20.5879C30.2741 20.2415 30.6296 19.9681 31.0762 19.7676C31.5273 19.5671 32.0218 19.4668 32.5596 19.4668C33.4118 19.4668 34.0794 19.681 34.5625 20.1094C35.0456 20.5332 35.2962 21.1188 35.3145 21.8662V25.2705C35.3145 25.9495 35.401 26.4896 35.5742 26.8906V27H34.248ZM32.1494 26.0361C32.5459 26.0361 32.9219 25.9336 33.2773 25.7285C33.6328 25.5234 33.8903 25.2568 34.0498 24.9287V23.4111H33.0586C31.5091 23.4111 30.7344 23.8646 30.7344 24.7715C30.7344 25.168 30.8665 25.4779 31.1309 25.7012C31.3952 25.9245 31.7347 26.0361 32.1494 26.0361ZM39.6279 25.2842L41.46 19.6035H42.752L40.0996 27H39.1357L36.4561 19.6035H37.748L39.6279 25.2842ZM48.4258 27C48.3529 26.8542 48.2936 26.5944 48.248 26.2207C47.6602 26.8314 46.9583 27.1367 46.1426 27.1367C45.4134 27.1367 44.8141 26.9316 44.3447 26.5215C43.8799 26.1068 43.6475 25.5827 43.6475 24.9492C43.6475 24.179 43.9391 23.582 44.5225 23.1582C45.1104 22.7298 45.9352 22.5156 46.9971 22.5156H48.2275V21.9346C48.2275 21.4925 48.0954 21.1416 47.8311 20.8818C47.5667 20.6175 47.1771 20.4854 46.6621 20.4854C46.2109 20.4854 45.8327 20.5993 45.5273 20.8271C45.222 21.055 45.0693 21.3307 45.0693 21.6543H43.7979C43.7979 21.2852 43.9277 20.9297 44.1875 20.5879C44.4518 20.2415 44.8073 19.9681 45.2539 19.7676C45.7051 19.5671 46.1995 19.4668 46.7373 19.4668C47.5895 19.4668 48.2572 19.681 48.7402 20.1094C49.2233 20.5332 49.474 21.1188 49.4922 21.8662V25.2705C49.4922 25.9495 49.5788 26.4896 49.752 26.8906V27H48.4258ZM46.3271 26.0361C46.7236 26.0361 47.0996 25.9336 47.4551 25.7285C47.8105 25.5234 48.068 25.2568 48.2275 24.9287V23.4111H47.2363C45.6868 23.4111 44.9121 23.8646 44.9121 24.7715C44.9121 25.168 45.0443 25.4779 45.3086 25.7012C45.5729 25.9245 45.9124 26.0361 46.3271 26.0361ZM54.6055 22.5635C53.4798 22.2399 52.6595 21.8434 52.1445 21.374C51.6341 20.9001 51.3789 20.3167 51.3789 19.624C51.3789 18.8402 51.6911 18.193 52.3154 17.6826C52.9443 17.1676 53.7601 16.9102 54.7627 16.9102C55.4463 16.9102 56.0547 17.0423 56.5879 17.3066C57.1257 17.571 57.5404 17.9355 57.832 18.4004C58.1283 18.8652 58.2764 19.3734 58.2764 19.9248H56.957C56.957 19.3232 56.7656 18.8516 56.3828 18.5098C56 18.1634 55.46 17.9902 54.7627 17.9902C54.1156 17.9902 53.6097 18.1338 53.2451 18.4209C52.8851 18.7035 52.7051 19.0977 52.7051 19.6035C52.7051 20.0091 52.876 20.3532 53.2178 20.6357C53.5641 20.9137 54.1497 21.1689 54.9746 21.4014C55.804 21.6338 56.4512 21.8913 56.916 22.1738C57.3854 22.4518 57.7318 22.7777 57.9551 23.1514C58.1829 23.5251 58.2969 23.9648 58.2969 24.4707C58.2969 25.2773 57.9824 25.9245 57.3535 26.4121C56.7246 26.8952 55.8838 27.1367 54.8311 27.1367C54.1475 27.1367 53.5094 27.0068 52.917 26.7471C52.3245 26.4827 51.8665 26.1227 51.543 25.667C51.224 25.2113 51.0645 24.694 51.0645 24.1152H52.3838C52.3838 24.7168 52.6048 25.193 53.0469 25.5439C53.4935 25.8903 54.0882 26.0635 54.8311 26.0635C55.5238 26.0635 56.0547 25.9222 56.4238 25.6396C56.793 25.3571 56.9775 24.972 56.9775 24.4844C56.9775 23.9967 56.8066 23.6208 56.4648 23.3564C56.123 23.0876 55.5033 22.8232 54.6055 22.5635ZM62.7539 26.1045C63.2051 26.1045 63.5993 25.9678 63.9365 25.6943C64.2738 25.4209 64.4606 25.0791 64.4971 24.6689H65.6934C65.6706 25.0928 65.5247 25.4961 65.2559 25.8789C64.987 26.2617 64.627 26.5671 64.1758 26.7949C63.7292 27.0228 63.2552 27.1367 62.7539 27.1367C61.7467 27.1367 60.9447 26.8018 60.3477 26.1318C59.7552 25.4574 59.459 24.5368 59.459 23.3701V23.1582C59.459 22.4382 59.5911 21.7979 59.8555 21.2373C60.1198 20.6768 60.498 20.2415 60.9902 19.9316C61.487 19.6217 62.0726 19.4668 62.7471 19.4668C63.5765 19.4668 64.2646 19.7152 64.8115 20.2119C65.363 20.7087 65.6569 21.3535 65.6934 22.1465H64.4971C64.4606 21.668 64.2783 21.276 63.9502 20.9707C63.6266 20.6608 63.2256 20.5059 62.7471 20.5059C62.1045 20.5059 61.6055 20.7383 61.25 21.2031C60.8991 21.6634 60.7236 22.3311 60.7236 23.2061V23.4453C60.7236 24.2975 60.8991 24.9538 61.25 25.4141C61.6009 25.8743 62.1022 26.1045 62.7539 26.1045ZM70.6904 20.7383C70.499 20.7064 70.2917 20.6904 70.0684 20.6904C69.2389 20.6904 68.6761 21.0436 68.3799 21.75V27H67.1152V19.6035H68.3457L68.3662 20.458C68.7809 19.7972 69.3688 19.4668 70.1299 19.4668C70.376 19.4668 70.5628 19.4987 70.6904 19.5625V20.7383ZM73.2334 27H71.9688V19.6035H73.2334V27ZM71.8662 17.6416C71.8662 17.4365 71.9277 17.2633 72.0508 17.1221C72.1784 16.9808 72.3652 16.9102 72.6113 16.9102C72.8574 16.9102 73.0443 16.9808 73.1719 17.1221C73.2995 17.2633 73.3633 17.4365 73.3633 17.6416C73.3633 17.8467 73.2995 18.0176 73.1719 18.1543C73.0443 18.291 72.8574 18.3594 72.6113 18.3594C72.3652 18.3594 72.1784 18.291 72.0508 18.1543C71.9277 18.0176 71.8662 17.8467 71.8662 17.6416ZM81.5117 23.3838C81.5117 24.5094 81.2542 25.4163 80.7393 26.1045C80.2243 26.7926 79.527 27.1367 78.6475 27.1367C77.7497 27.1367 77.0433 26.8519 76.5283 26.2822V29.8438H75.2637V19.6035H76.4189L76.4805 20.4238C76.9954 19.7858 77.7109 19.4668 78.627 19.4668C79.5156 19.4668 80.2174 19.8018 80.7324 20.4717C81.252 21.1416 81.5117 22.0736 81.5117 23.2676V23.3838ZM80.2471 23.2402C80.2471 22.4062 80.0693 21.7477 79.7139 21.2646C79.3584 20.7816 78.8708 20.54 78.251 20.54C77.4854 20.54 76.9111 20.8796 76.5283 21.5586V25.0928C76.9066 25.7673 77.4854 26.1045 78.2646 26.1045C78.8708 26.1045 79.3516 25.8652 79.707 25.3867C80.0671 24.9036 80.2471 24.1882 80.2471 23.2402ZM84.8408 17.8125V19.6035H86.2217V20.5811H84.8408V25.168C84.8408 25.4642 84.9023 25.6875 85.0254 25.8379C85.1484 25.9837 85.3581 26.0566 85.6543 26.0566C85.8001 26.0566 86.0007 26.0293 86.2559 25.9746V27C85.9232 27.0911 85.5996 27.1367 85.2852 27.1367C84.7201 27.1367 84.2939 26.9658 84.0068 26.624C83.7197 26.2822 83.5762 25.7969 83.5762 25.168V20.5811H82.2295V19.6035H83.5762V17.8125H84.8408Z" fill="#323330"/>
</g>
<defs>
<filter id="filter0_d" x="0" y="0" width="108" height="44" filterUnits="userSpaceOnUse" color-interpolation-filters="sRGB">
<feFlood flood-opacity="0" result="BackgroundImageFix"/>
<feColorMatrix in="SourceAlpha" type="matrix" values="0 0 0 0 0 0 0 0 0 0 0 0 0 0 0 0 0 0 127 0"/>
<feOffset/>
<feGaussianBlur stdDeviation="3.5"/>
<feColorMatrix type="matrix" values="0 0 0 0 0 0 0 0 0 0 0 0 0 0 0 0 0 0 0.14 0"/>
<feBlend mode="normal" in2="BackgroundImageFix" result="effect1_dropShadow"/>
<feBlend mode="normal" in="SourceGraphic" in2="effect1_dropShadow" result="shape"/>
</filter>
</defs>
</svg>