<svg width="108" height="44" viewBox="0 0 108 44" fill="none" xmlns="http://www.w3.org/2000/svg">
<g filter="url(#filter0_d)">
<rect x="7" y="7" width="94" height="30" rx="7" fill="#13AA52"/>
<path d="M23.8506 17.0469L27.1045 25.168L30.3584 17.0469H32.0605V27H30.748V23.124L30.8711 18.9404L27.6035 27H26.5986L23.3379 18.9609L23.4678 23.124V27H22.1553V17.0469H23.8506ZM33.8447 23.2334C33.8447 22.5088 33.986 21.8571 34.2686 21.2783C34.5557 20.6995 34.9521 20.2529 35.458 19.9385C35.9684 19.624 36.5495 19.4668 37.2012 19.4668C38.2083 19.4668 39.0218 19.8154 39.6416 20.5127C40.266 21.21 40.5781 22.1374 40.5781 23.2949V23.3838C40.5781 24.1038 40.4391 24.751 40.1611 25.3252C39.8877 25.8949 39.4935 26.3392 38.9785 26.6582C38.4681 26.9772 37.8802 27.1367 37.2148 27.1367C36.2122 27.1367 35.3988 26.7881 34.7744 26.0908C34.1546 25.3936 33.8447 24.4707 33.8447 23.3223V23.2334ZM35.1162 23.3838C35.1162 24.2041 35.3053 24.8626 35.6836 25.3594C36.0664 25.8561 36.5768 26.1045 37.2148 26.1045C37.8574 26.1045 38.3678 25.8538 38.7461 25.3525C39.1243 24.8467 39.3135 24.1403 39.3135 23.2334C39.3135 22.4222 39.1198 21.766 38.7324 21.2646C38.3496 20.7588 37.8392 20.5059 37.2012 20.5059C36.5768 20.5059 36.0732 20.7542 35.6904 21.251C35.3076 21.7477 35.1162 22.4587 35.1162 23.3838ZM43.3604 19.6035L43.4014 20.5332C43.9665 19.8223 44.7048 19.4668 45.6162 19.4668C47.1794 19.4668 47.9678 20.3486 47.9814 22.1123V27H46.7168V22.1055C46.7122 21.5723 46.5892 21.1781 46.3477 20.9229C46.1107 20.6676 45.7393 20.54 45.2334 20.54C44.8232 20.54 44.4632 20.6494 44.1533 20.8682C43.8434 21.0869 43.6019 21.374 43.4287 21.7295V27H42.1641V19.6035H43.3604ZM49.5879 23.2402C49.5879 22.0872 49.8545 21.1712 50.3877 20.4922C50.9209 19.8086 51.6273 19.4668 52.5068 19.4668C53.4092 19.4668 54.1133 19.7858 54.6191 20.4238L54.6807 19.6035H55.8359V26.8223C55.8359 27.7793 55.5511 28.5335 54.9814 29.085C54.4163 29.6364 53.6553 29.9121 52.6982 29.9121C52.165 29.9121 51.6432 29.7982 51.1328 29.5703C50.6224 29.3424 50.2327 29.0303 49.9639 28.6338L50.6201 27.875C51.1624 28.5449 51.8255 28.8799 52.6094 28.8799C53.2246 28.8799 53.7031 28.7067 54.0449 28.3604C54.3913 28.014 54.5645 27.5264 54.5645 26.8975V26.2617C54.0586 26.8451 53.3682 27.1367 52.4932 27.1367C51.6273 27.1367 50.9255 26.7881 50.3877 26.0908C49.8545 25.3936 49.5879 24.4434 49.5879 23.2402ZM50.8594 23.3838C50.8594 24.2178 51.0303 24.874 51.3721 25.3525C51.7139 25.8265 52.1924 26.0635 52.8076 26.0635C53.6051 26.0635 54.1908 25.7012 54.5645 24.9766V21.5996C54.1771 20.8932 53.596 20.54 52.8213 20.54C52.2061 20.54 51.7253 20.7793 51.3789 21.2578C51.0326 21.7363 50.8594 22.445 50.8594 23.3838ZM57.415 23.2334C57.415 22.5088 57.5563 21.8571 57.8389 21.2783C58.126 20.6995 58.5225 20.2529 59.0283 19.9385C59.5387 19.624 60.1198 19.4668 60.7715 19.4668C61.7786 19.4668 62.5921 19.8154 63.2119 20.5127C63.8363 21.21 64.1484 22.1374 64.1484 23.2949V23.3838C64.1484 24.1038 64.0094 24.751 63.7314 25.3252C63.458 25.8949 63.0638 26.3392 62.5488 26.6582C62.0384 26.9772 61.4505 27.1367 60.7852 27.1367C59.7826 27.1367 58.9691 26.7881 58.3447 26.0908C57.7249 25.3936 57.415 24.4707 57.415 23.3223V23.2334ZM58.6865 23.3838C58.6865 24.2041 58.8757 24.8626 59.2539 25.3594C59.6367 25.8561 60.1471 26.1045 60.7852 26.1045C61.4277 26.1045 61.9382 25.8538 62.3164 25.3525C62.6947 24.8467 62.8838 24.1403 62.8838 23.2334C62.8838 22.4222 62.6901 21.766 62.3027 21.2646C61.9199 20.7588 61.4095 20.5059 60.7715 20.5059C60.1471 20.5059 59.6436 20.7542 59.2607 21.251C58.8779 21.7477 58.6865 22.4587 58.6865 23.3838ZM69.4053 27V17.0469H72.2148C73.0807 17.0469 73.8464 17.2383 74.5117 17.6211C75.1771 18.0039 75.6898 18.5485 76.0498 19.2549C76.4144 19.9613 76.599 20.7725 76.6035 21.6885V22.3242C76.6035 23.263 76.4212 24.0856 76.0566 24.792C75.6966 25.4984 75.1794 26.0407 74.5049 26.4189C73.835 26.7972 73.0534 26.9909 72.1602 27H69.4053ZM70.7178 18.127V25.9268H72.0986C73.1104 25.9268 73.8965 25.6123 74.457 24.9834C75.0221 24.3545 75.3047 23.459 75.3047 22.2969V21.7158C75.3047 20.5856 75.0381 19.7083 74.5049 19.084C73.9762 18.4551 73.2243 18.1361 72.249 18.127H70.7178ZM78.5928 27V17.0469H81.8467C82.9268 17.0469 83.738 17.2702 84.2803 17.7168C84.8271 18.1634 85.1006 18.8242 85.1006 19.6992C85.1006 20.1641 84.9684 20.5765 84.7041 20.9365C84.4398 21.292 84.0798 21.5677 83.624 21.7637C84.1618 21.9141 84.5856 22.2012 84.8955 22.625C85.21 23.0443 85.3672 23.5456 85.3672 24.1289C85.3672 25.0221 85.0778 25.724 84.499 26.2344C83.9202 26.7448 83.1022 27 82.0449 27H78.5928ZM79.9053 22.3447V25.9268H82.0723C82.6829 25.9268 83.1637 25.7695 83.5146 25.4551C83.8701 25.1361 84.0479 24.6986 84.0479 24.1426C84.0479 22.944 83.3962 22.3447 82.0928 22.3447H79.9053ZM79.9053 21.292H81.8877C82.4619 21.292 82.9199 21.1484 83.2617 20.8613C83.6081 20.5742 83.7812 20.1846 83.7812 19.6924C83.7812 19.1455 83.6217 18.749 83.3027 18.5029C82.9837 18.2523 82.4984 18.127 81.8467 18.127H79.9053V21.292Z" fill="white"/>
</g>
<defs>
<filter id="filter0_d" x="0" y="0" width="108" height="44" filterUnits="userSpaceOnUse" color-interpolation-filters="sRGB">
<feFlood flood-opacity="0" result="BackgroundImageFix"/>
<feColorMatrix in="SourceAlpha" type="matrix" values="0 0 0 0 0 0 0 0 0 0 0 0 0 0 0 0 0 0 127 0"/>
<feOffset/>
<feGaussianBlur stdDeviation="3.5"/>
<feColorMatrix type="matrix" values="0 0 0 0 0 0 0 0 0 0 0 0 0 0 0 0 0 0 0.14 0"/>
<feBlend mode="normal" in2="BackgroundImageFix" result="effect1_dropShadow"/>
<feBlend mode="normal" in="SourceGraphic" in2="effect1_dropShadow" result="shape"/>
</filter>
</defs>
</svg>