<svg width="95" height="44" viewBox="0 0 95 44" fill="none" xmlns="http://www.w3.org/2000/svg">
<g filter="url(#filter0_d)">
<rect x="7" y="7" width="81" height="30" rx="7" fill="#EAF5E9"/>
<path d="M29.8047 27H28.4854L23.4746 19.3301V27H22.1553V17.0469H23.4746L28.499 24.751V17.0469H29.8047V27ZM31.6025 23.2334C31.6025 22.5088 31.7438 21.8571 32.0264 21.2783C32.3135 20.6995 32.71 20.2529 33.2158 19.9385C33.7262 19.624 34.3073 19.4668 34.959 19.4668C35.9661 19.4668 36.7796 19.8154 37.3994 20.5127C38.0238 21.21 38.3359 22.1374 38.3359 23.2949V23.3838C38.3359 24.1038 38.1969 24.751 37.9189 25.3252C37.6455 25.8949 37.2513 26.3392 36.7363 26.6582C36.2259 26.9772 35.638 27.1367 34.9727 27.1367C33.9701 27.1367 33.1566 26.7881 32.5322 26.0908C31.9124 25.3936 31.6025 24.4707 31.6025 23.3223V23.2334ZM32.874 23.3838C32.874 24.2041 33.0632 24.8626 33.4414 25.3594C33.8242 25.8561 34.3346 26.1045 34.9727 26.1045C35.6152 26.1045 36.1257 25.8538 36.5039 25.3525C36.8822 24.8467 37.0713 24.1403 37.0713 23.2334C37.0713 22.4222 36.8776 21.766 36.4902 21.2646C36.1074 20.7588 35.597 20.5059 34.959 20.5059C34.3346 20.5059 33.8311 20.7542 33.4482 21.251C33.0654 21.7477 32.874 22.4587 32.874 23.3838ZM39.6143 23.2402C39.6143 22.1055 39.8831 21.194 40.4209 20.5059C40.9587 19.8132 41.6628 19.4668 42.5332 19.4668C43.3991 19.4668 44.085 19.763 44.5908 20.3555V16.5H45.8555V27H44.6934L44.6318 26.207C44.126 26.8268 43.4219 27.1367 42.5195 27.1367C41.6628 27.1367 40.9632 26.7858 40.4209 26.084C39.8831 25.3822 39.6143 24.4661 39.6143 23.3359V23.2402ZM40.8789 23.3838C40.8789 24.2223 41.0521 24.8786 41.3984 25.3525C41.7448 25.8265 42.2233 26.0635 42.834 26.0635C43.6361 26.0635 44.2217 25.7035 44.5908 24.9834V21.5859C44.2126 20.8887 43.6315 20.54 42.8477 20.54C42.2279 20.54 41.7448 20.7793 41.3984 21.2578C41.0521 21.7363 40.8789 22.445 40.8789 23.3838ZM50.8936 27.1367C49.891 27.1367 49.0752 26.8086 48.4463 26.1523C47.8174 25.4915 47.5029 24.6097 47.5029 23.5068V23.2744C47.5029 22.5407 47.6419 21.8867 47.9199 21.3125C48.2025 20.7337 48.5944 20.2826 49.0957 19.959C49.6016 19.6309 50.1484 19.4668 50.7363 19.4668C51.6979 19.4668 52.4453 19.7835 52.9785 20.417C53.5117 21.0505 53.7783 21.9574 53.7783 23.1377V23.6641H48.7676C48.7858 24.3932 48.9977 24.9834 49.4033 25.4346C49.8135 25.8812 50.333 26.1045 50.9619 26.1045C51.4085 26.1045 51.7868 26.0133 52.0967 25.8311C52.4066 25.6488 52.6777 25.4072 52.9102 25.1064L53.6826 25.708C53.0628 26.6605 52.1331 27.1367 50.8936 27.1367ZM50.7363 20.5059C50.2259 20.5059 49.7975 20.6927 49.4512 21.0664C49.1048 21.4355 48.8906 21.9551 48.8086 22.625H52.5137V22.5293C52.4772 21.8867 52.304 21.39 51.9941 21.0391C51.6842 20.6836 51.265 20.5059 50.7363 20.5059ZM63.0889 17.0469H64.4082V24.0947C64.4082 25.0472 64.1211 25.7923 63.5469 26.3301C62.9772 26.8678 62.2161 27.1367 61.2637 27.1367C60.2747 27.1367 59.5046 26.8838 58.9531 26.3779C58.4017 25.8721 58.126 25.1634 58.126 24.252H59.4385C59.4385 24.8216 59.5934 25.266 59.9033 25.585C60.2178 25.904 60.6712 26.0635 61.2637 26.0635C61.806 26.0635 62.2435 25.8926 62.5762 25.5508C62.9134 25.209 63.0843 24.7305 63.0889 24.1152V17.0469ZM69.5762 22.5635C68.4505 22.2399 67.6302 21.8434 67.1152 21.374C66.6048 20.9001 66.3496 20.3167 66.3496 19.624C66.3496 18.8402 66.6618 18.193 67.2861 17.6826C67.915 17.1676 68.7308 16.9102 69.7334 16.9102C70.417 16.9102 71.0254 17.0423 71.5586 17.3066C72.0964 17.571 72.5111 17.9355 72.8027 18.4004C73.099 18.8652 73.2471 19.3734 73.2471 19.9248H71.9277C71.9277 19.3232 71.7363 18.8516 71.3535 18.5098C70.9707 18.1634 70.4307 17.9902 69.7334 17.9902C69.0863 17.9902 68.5804 18.1338 68.2158 18.4209C67.8558 18.7035 67.6758 19.0977 67.6758 19.6035C67.6758 20.0091 67.8467 20.3532 68.1885 20.6357C68.5348 20.9137 69.1204 21.1689 69.9453 21.4014C70.7747 21.6338 71.4219 21.8913 71.8867 22.1738C72.3561 22.4518 72.7025 22.7777 72.9258 23.1514C73.1536 23.5251 73.2676 23.9648 73.2676 24.4707C73.2676 25.2773 72.9531 25.9245 72.3242 26.4121C71.6953 26.8952 70.8545 27.1367 69.8018 27.1367C69.1182 27.1367 68.4801 27.0068 67.8877 26.7471C67.2952 26.4827 66.8372 26.1227 66.5137 25.667C66.1947 25.2113 66.0352 24.694 66.0352 24.1152H67.3545C67.3545 24.7168 67.5755 25.193 68.0176 25.5439C68.4642 25.8903 69.0589 26.0635 69.8018 26.0635C70.4945 26.0635 71.0254 25.9222 71.3945 25.6396C71.7637 25.3571 71.9482 24.972 71.9482 24.4844C71.9482 23.9967 71.7773 23.6208 71.4355 23.3564C71.0938 23.0876 70.474 22.8232 69.5762 22.5635Z" fill="#026E00"/>
</g>
<defs>
<filter id="filter0_d" x="0" y="0" width="95" height="44" filterUnits="userSpaceOnUse" color-interpolation-filters="sRGB">
<feFlood flood-opacity="0" result="BackgroundImageFix"/>
<feColorMatrix in="SourceAlpha" type="matrix" values="0 0 0 0 0 0 0 0 0 0 0 0 0 0 0 0 0 0 127 0"/>
<feOffset/>
<feGaussianBlur stdDeviation="3.5"/>
<feColorMatrix type="matrix" values="0 0 0 0 0 0 0 0 0 0 0 0 0 0 0 0 0 0 0.14 0"/>
<feBlend mode="normal" in2="BackgroundImageFix" result="effect1_dropShadow"/>
<feBlend mode="normal" in="SourceGraphic" in2="effect1_dropShadow" result="shape"/>
</filter>
</defs>
</svg>