<svg width="78" height="44" viewBox="0 0 78 44" fill="none" xmlns="http://www.w3.org/2000/svg">
<g filter="url(#filter0_d)">
<rect x="7" y="7" width="64" height="30" rx="7" fill="#282C34"/>
<path d="M25.8057 22.9736H23.4678V27H22.1484V17.0469H25.4434C26.5645 17.0469 27.4258 17.3021 28.0273 17.8125C28.6335 18.3229 28.9365 19.0658 28.9365 20.041C28.9365 20.6608 28.7679 21.2008 28.4307 21.6611C28.098 22.1214 27.6331 22.4655 27.0361 22.6934L29.374 26.918V27H27.9658L25.8057 22.9736ZM23.4678 21.9004H25.4844C26.1361 21.9004 26.6533 21.7318 27.0361 21.3945C27.4235 21.0573 27.6172 20.6061 27.6172 20.041C27.6172 19.4258 27.4326 18.9541 27.0635 18.626C26.6989 18.2979 26.1702 18.1315 25.4775 18.127H23.4678V21.9004ZM33.6533 27.1367C32.6507 27.1367 31.835 26.8086 31.2061 26.1523C30.5771 25.4915 30.2627 24.6097 30.2627 23.5068V23.2744C30.2627 22.5407 30.4017 21.8867 30.6797 21.3125C30.9622 20.7337 31.3542 20.2826 31.8555 19.959C32.3613 19.6309 32.9082 19.4668 33.4961 19.4668C34.4577 19.4668 35.2051 19.7835 35.7383 20.417C36.2715 21.0505 36.5381 21.9574 36.5381 23.1377V23.6641H31.5273C31.5456 24.3932 31.7575 24.9834 32.1631 25.4346C32.5732 25.8812 33.0928 26.1045 33.7217 26.1045C34.1683 26.1045 34.5465 26.0133 34.8564 25.8311C35.1663 25.6488 35.4375 25.4072 35.6699 25.1064L36.4424 25.708C35.8226 26.6605 34.8929 27.1367 33.6533 27.1367ZM33.4961 20.5059C32.9857 20.5059 32.5573 20.6927 32.2109 21.0664C31.8646 21.4355 31.6504 21.9551 31.5684 22.625H35.2734V22.5293C35.237 21.8867 35.0638 21.39 34.7539 21.0391C34.444 20.6836 34.0247 20.5059 33.4961 20.5059ZM42.5742 27C42.5013 26.8542 42.4421 26.5944 42.3965 26.2207C41.8086 26.8314 41.1068 27.1367 40.291 27.1367C39.5618 27.1367 38.9626 26.9316 38.4932 26.5215C38.0283 26.1068 37.7959 25.5827 37.7959 24.9492C37.7959 24.179 38.0876 23.582 38.6709 23.1582C39.2588 22.7298 40.0837 22.5156 41.1455 22.5156H42.376V21.9346C42.376 21.4925 42.2438 21.1416 41.9795 20.8818C41.7152 20.6175 41.3255 20.4854 40.8105 20.4854C40.3594 20.4854 39.9811 20.5993 39.6758 20.8271C39.3704 21.055 39.2178 21.3307 39.2178 21.6543H37.9463C37.9463 21.2852 38.0762 20.9297 38.3359 20.5879C38.6003 20.2415 38.9557 19.9681 39.4023 19.7676C39.8535 19.5671 40.348 19.4668 40.8857 19.4668C41.738 19.4668 42.4056 19.681 42.8887 20.1094C43.3717 20.5332 43.6224 21.1188 43.6406 21.8662V25.2705C43.6406 25.9495 43.7272 26.4896 43.9004 26.8906V27H42.5742ZM40.4756 26.0361C40.8721 26.0361 41.248 25.9336 41.6035 25.7285C41.959 25.5234 42.2165 25.2568 42.376 24.9287V23.4111H41.3848C39.8353 23.4111 39.0605 23.8646 39.0605 24.7715C39.0605 25.168 39.1927 25.4779 39.457 25.7012C39.7214 25.9245 40.0609 26.0361 40.4756 26.0361ZM48.5898 26.1045C49.041 26.1045 49.4352 25.9678 49.7725 25.6943C50.1097 25.4209 50.2965 25.0791 50.333 24.6689H51.5293C51.5065 25.0928 51.3607 25.4961 51.0918 25.8789C50.8229 26.2617 50.4629 26.5671 50.0117 26.7949C49.5651 27.0228 49.0911 27.1367 48.5898 27.1367C47.5827 27.1367 46.7806 26.8018 46.1836 26.1318C45.5911 25.4574 45.2949 24.5368 45.2949 23.3701V23.1582C45.2949 22.4382 45.4271 21.7979 45.6914 21.2373C45.9557 20.6768 46.334 20.2415 46.8262 19.9316C47.3229 19.6217 47.9085 19.4668 48.583 19.4668C49.4124 19.4668 50.1006 19.7152 50.6475 20.2119C51.1989 20.7087 51.4928 21.3535 51.5293 22.1465H50.333C50.2965 21.668 50.1143 21.276 49.7861 20.9707C49.4626 20.6608 49.0615 20.5059 48.583 20.5059C47.9404 20.5059 47.4414 20.7383 47.0859 21.2031C46.735 21.6634 46.5596 22.3311 46.5596 23.2061V23.4453C46.5596 24.2975 46.735 24.9538 47.0859 25.4141C47.4368 25.8743 47.9382 26.1045 48.5898 26.1045ZM54.667 17.8125V19.6035H56.0479V20.5811H54.667V25.168C54.667 25.4642 54.7285 25.6875 54.8516 25.8379C54.9746 25.9837 55.1842 26.0566 55.4805 26.0566C55.6263 26.0566 55.8268 26.0293 56.082 25.9746V27C55.7493 27.0911 55.4258 27.1367 55.1113 27.1367C54.5462 27.1367 54.1201 26.9658 53.833 26.624C53.5459 26.2822 53.4023 25.7969 53.4023 25.168V20.5811H52.0557V19.6035H53.4023V17.8125H54.667Z" fill="#61DAFB"/>
</g>
<defs>
<filter id="filter0_d" x="0" y="0" width="78" height="44" filterUnits="userSpaceOnUse" color-interpolation-filters="sRGB">
<feFlood flood-opacity="0" result="BackgroundImageFix"/>
<feColorMatrix in="SourceAlpha" type="matrix" values="0 0 0 0 0 0 0 0 0 0 0 0 0 0 0 0 0 0 127 0"/>
<feOffset/>
<feGaussianBlur stdDeviation="3.5"/>
<feColorMatrix type="matrix" values="0 0 0 0 0 0 0 0 0 0 0 0 0 0 0 0 0 0 0.14 0"/>
<feBlend mode="normal" in2="BackgroundImageFix" result="effect1_dropShadow"/>
<feBlend mode="normal" in="SourceGraphic" in2="effect1_dropShadow" result="shape"/>
</filter>
</defs>
</svg>