<svg width="109" height="44" viewBox="0 0 109 44" fill="none" xmlns="http://www.w3.org/2000/svg">
<g filter="url(#filter0_d)">
<rect x="7" y="7" width="95" height="30" rx="7" fill="#3178C6"/>
<path d="M29.0322 18.127H25.833V27H24.5273V18.127H21.335V17.0469H29.0322V18.127ZM32.2383 25.1475L33.9609 19.6035H35.3145L32.3408 28.1416C31.8805 29.3721 31.1491 29.9873 30.1465 29.9873L29.9072 29.9668L29.4355 29.8779V28.8525L29.7773 28.8799C30.2057 28.8799 30.5384 28.7933 30.7754 28.6201C31.0169 28.4469 31.2152 28.1302 31.3701 27.6699L31.6504 26.918L29.0117 19.6035H30.3926L32.2383 25.1475ZM42.6973 23.3838C42.6973 24.5094 42.4398 25.4163 41.9248 26.1045C41.4098 26.7926 40.7126 27.1367 39.833 27.1367C38.9352 27.1367 38.2288 26.8519 37.7139 26.2822V29.8438H36.4492V19.6035H37.6045L37.666 20.4238C38.181 19.7858 38.8965 19.4668 39.8125 19.4668C40.7012 19.4668 41.403 19.8018 41.918 20.4717C42.4375 21.1416 42.6973 22.0736 42.6973 23.2676V23.3838ZM41.4326 23.2402C41.4326 22.4062 41.2549 21.7477 40.8994 21.2646C40.5439 20.7816 40.0563 20.54 39.4365 20.54C38.6709 20.54 38.0967 20.8796 37.7139 21.5586V25.0928C38.0921 25.7673 38.6709 26.1045 39.4502 26.1045C40.0563 26.1045 40.5371 25.8652 40.8926 25.3867C41.2526 24.9036 41.4326 24.1882 41.4326 23.2402ZM47.3799 27.1367C46.3773 27.1367 45.5615 26.8086 44.9326 26.1523C44.3037 25.4915 43.9893 24.6097 43.9893 23.5068V23.2744C43.9893 22.5407 44.1283 21.8867 44.4062 21.3125C44.6888 20.7337 45.0807 20.2826 45.582 19.959C46.0879 19.6309 46.6348 19.4668 47.2227 19.4668C48.1842 19.4668 48.9316 19.7835 49.4648 20.417C49.998 21.0505 50.2646 21.9574 50.2646 23.1377V23.6641H45.2539C45.2721 24.3932 45.484 24.9834 45.8896 25.4346C46.2998 25.8812 46.8193 26.1045 47.4482 26.1045C47.8949 26.1045 48.2731 26.0133 48.583 25.8311C48.8929 25.6488 49.1641 25.4072 49.3965 25.1064L50.1689 25.708C49.5492 26.6605 48.6195 27.1367 47.3799 27.1367ZM47.2227 20.5059C46.7122 20.5059 46.2839 20.6927 45.9375 21.0664C45.5911 21.4355 45.377 21.9551 45.2949 22.625H49V22.5293C48.9635 21.8867 48.7904 21.39 48.4805 21.0391C48.1706 20.6836 47.7513 20.5059 47.2227 20.5059ZM54.8652 22.5635C53.7396 22.2399 52.9193 21.8434 52.4043 21.374C51.8939 20.9001 51.6387 20.3167 51.6387 19.624C51.6387 18.8402 51.9508 18.193 52.5752 17.6826C53.2041 17.1676 54.0199 16.9102 55.0225 16.9102C55.7061 16.9102 56.3145 17.0423 56.8477 17.3066C57.3854 17.571 57.8001 17.9355 58.0918 18.4004C58.388 18.8652 58.5361 19.3734 58.5361 19.9248H57.2168C57.2168 19.3232 57.0254 18.8516 56.6426 18.5098C56.2598 18.1634 55.7197 17.9902 55.0225 17.9902C54.3753 17.9902 53.8695 18.1338 53.5049 18.4209C53.1449 18.7035 52.9648 19.0977 52.9648 19.6035C52.9648 20.0091 53.1357 20.3532 53.4775 20.6357C53.8239 20.9137 54.4095 21.1689 55.2344 21.4014C56.0638 21.6338 56.7109 21.8913 57.1758 22.1738C57.6452 22.4518 57.9915 22.7777 58.2148 23.1514C58.4427 23.5251 58.5566 23.9648 58.5566 24.4707C58.5566 25.2773 58.2422 25.9245 57.6133 26.4121C56.9844 26.8952 56.1436 27.1367 55.0908 27.1367C54.4072 27.1367 53.7692 27.0068 53.1768 26.7471C52.5843 26.4827 52.1263 26.1227 51.8027 25.667C51.4837 25.2113 51.3242 24.694 51.3242 24.1152H52.6436C52.6436 24.7168 52.8646 25.193 53.3066 25.5439C53.7533 25.8903 54.348 26.0635 55.0908 26.0635C55.7835 26.0635 56.3145 25.9222 56.6836 25.6396C57.0527 25.3571 57.2373 24.972 57.2373 24.4844C57.2373 23.9967 57.0664 23.6208 56.7246 23.3564C56.3828 23.0876 55.763 22.8232 54.8652 22.5635ZM63.0137 26.1045C63.4648 26.1045 63.859 25.9678 64.1963 25.6943C64.5335 25.4209 64.7204 25.0791 64.7568 24.6689H65.9531C65.9303 25.0928 65.7845 25.4961 65.5156 25.8789C65.2467 26.2617 64.8867 26.5671 64.4355 26.7949C63.9889 27.0228 63.515 27.1367 63.0137 27.1367C62.0065 27.1367 61.2044 26.8018 60.6074 26.1318C60.015 25.4574 59.7188 24.5368 59.7188 23.3701V23.1582C59.7188 22.4382 59.8509 21.7979 60.1152 21.2373C60.3796 20.6768 60.7578 20.2415 61.25 19.9316C61.7467 19.6217 62.3324 19.4668 63.0068 19.4668C63.8363 19.4668 64.5244 19.7152 65.0713 20.2119C65.6227 20.7087 65.9167 21.3535 65.9531 22.1465H64.7568C64.7204 21.668 64.5381 21.276 64.21 20.9707C63.8864 20.6608 63.4854 20.5059 63.0068 20.5059C62.3643 20.5059 61.8652 20.7383 61.5098 21.2031C61.1589 21.6634 60.9834 22.3311 60.9834 23.2061V23.4453C60.9834 24.2975 61.1589 24.9538 61.5098 25.4141C61.8607 25.8743 62.362 26.1045 63.0137 26.1045ZM70.9502 20.7383C70.7588 20.7064 70.5514 20.6904 70.3281 20.6904C69.4987 20.6904 68.9359 21.0436 68.6396 21.75V27H67.375V19.6035H68.6055L68.626 20.458C69.0407 19.7972 69.6286 19.4668 70.3896 19.4668C70.6357 19.4668 70.8226 19.4987 70.9502 19.5625V20.7383ZM73.4932 27H72.2285V19.6035H73.4932V27ZM72.126 17.6416C72.126 17.4365 72.1875 17.2633 72.3105 17.1221C72.4382 16.9808 72.625 16.9102 72.8711 16.9102C73.1172 16.9102 73.304 16.9808 73.4316 17.1221C73.5592 17.2633 73.623 17.4365 73.623 17.6416C73.623 17.8467 73.5592 18.0176 73.4316 18.1543C73.304 18.291 73.1172 18.3594 72.8711 18.3594C72.625 18.3594 72.4382 18.291 72.3105 18.1543C72.1875 18.0176 72.126 17.8467 72.126 17.6416ZM81.7715 23.3838C81.7715 24.5094 81.514 25.4163 80.999 26.1045C80.484 26.7926 79.7868 27.1367 78.9072 27.1367C78.0094 27.1367 77.3031 26.8519 76.7881 26.2822V29.8438H75.5234V19.6035H76.6787L76.7402 20.4238C77.2552 19.7858 77.9707 19.4668 78.8867 19.4668C79.7754 19.4668 80.4772 19.8018 80.9922 20.4717C81.5117 21.1416 81.7715 22.0736 81.7715 23.2676V23.3838ZM80.5068 23.2402C80.5068 22.4062 80.3291 21.7477 79.9736 21.2646C79.6182 20.7816 79.1305 20.54 78.5107 20.54C77.7451 20.54 77.1709 20.8796 76.7881 21.5586V25.0928C77.1663 25.7673 77.7451 26.1045 78.5244 26.1045C79.1305 26.1045 79.6113 25.8652 79.9668 25.3867C80.3268 24.9036 80.5068 24.1882 80.5068 23.2402ZM85.1006 17.8125V19.6035H86.4814V20.5811H85.1006V25.168C85.1006 25.4642 85.1621 25.6875 85.2852 25.8379C85.4082 25.9837 85.6178 26.0566 85.9141 26.0566C86.0599 26.0566 86.2604 26.0293 86.5156 25.9746V27C86.1829 27.0911 85.8594 27.1367 85.5449 27.1367C84.9798 27.1367 84.5537 26.9658 84.2666 26.624C83.9795 26.2822 83.8359 25.7969 83.8359 25.168V20.5811H82.4893V19.6035H83.8359V17.8125H85.1006Z" fill="white"/>
</g>
<defs>
<filter id="filter0_d" x="0" y="0" width="109" height="44" filterUnits="userSpaceOnUse" color-interpolation-filters="sRGB">
<feFlood flood-opacity="0" result="BackgroundImageFix"/>
<feColorMatrix in="SourceAlpha" type="matrix" values="0 0 0 0 0 0 0 0 0 0 0 0 0 0 0 0 0 0 127 0"/>
<feOffset/>
<feGaussianBlur stdDeviation="3.5"/>
<feColorMatrix type="matrix" values="0 0 0 0 0 0 0 0 0 0 0 0 0 0 0 0 0 0 0.14 0"/>
<feBlend mode="normal" in2="BackgroundImageFix" result="effect1_dropShadow"/>
<feBlend mode="normal" in="SourceGraphic" in2="effect1_dropShadow" result="shape"/>
</filter>
</defs>
</svg>