<svg width="70" height="44" viewBox="0 0 70 44" fill="none" xmlns="http://www.w3.org/2000/svg">
<g filter="url(#filter0_d)">
<rect x="7" y="7" width="56" height="30" rx="7" fill="#1C2237"/>
<path d="M22.1553 27V17.0469H25.4092C26.4893 17.0469 27.3005 17.2702 27.8428 17.7168C28.3896 18.1634 28.6631 18.8242 28.6631 19.6992C28.6631 20.1641 28.5309 20.5765 28.2666 20.9365C28.0023 21.292 27.6423 21.5677 27.1865 21.7637C27.7243 21.9141 28.1481 22.2012 28.458 22.625C28.7725 23.0443 28.9297 23.5456 28.9297 24.1289C28.9297 25.0221 28.6403 25.724 28.0615 26.2344C27.4827 26.7448 26.6647 27 25.6074 27H22.1553ZM23.4678 22.3447V25.9268H25.6348C26.2454 25.9268 26.7262 25.7695 27.0771 25.4551C27.4326 25.1361 27.6104 24.6986 27.6104 24.1426C27.6104 22.944 26.9587 22.3447 25.6553 22.3447H23.4678ZM23.4678 21.292H25.4502C26.0244 21.292 26.4824 21.1484 26.8242 20.8613C27.1706 20.5742 27.3438 20.1846 27.3438 19.6924C27.3438 19.1455 27.1842 18.749 26.8652 18.5029C26.5462 18.2523 26.0609 18.127 25.4092 18.127H23.4678V21.292ZM32.0537 27H30.7891V16.5H32.0537V27ZM33.749 23.2334C33.749 22.5088 33.8903 21.8571 34.1729 21.2783C34.46 20.6995 34.8564 20.2529 35.3623 19.9385C35.8727 19.624 36.4538 19.4668 37.1055 19.4668C38.1126 19.4668 38.9261 19.8154 39.5459 20.5127C40.1702 21.21 40.4824 22.1374 40.4824 23.2949V23.3838C40.4824 24.1038 40.3434 24.751 40.0654 25.3252C39.792 25.8949 39.3978 26.3392 38.8828 26.6582C38.3724 26.9772 37.7845 27.1367 37.1191 27.1367C36.1165 27.1367 35.3031 26.7881 34.6787 26.0908C34.0589 25.3936 33.749 24.4707 33.749 23.3223V23.2334ZM35.0205 23.3838C35.0205 24.2041 35.2096 24.8626 35.5879 25.3594C35.9707 25.8561 36.4811 26.1045 37.1191 26.1045C37.7617 26.1045 38.2721 25.8538 38.6504 25.3525C39.0286 24.8467 39.2178 24.1403 39.2178 23.2334C39.2178 22.4222 39.0241 21.766 38.6367 21.2646C38.2539 20.7588 37.7435 20.5059 37.1055 20.5059C36.4811 20.5059 35.9775 20.7542 35.5947 21.251C35.2119 21.7477 35.0205 22.4587 35.0205 23.3838ZM41.7676 23.2402C41.7676 22.0872 42.0342 21.1712 42.5674 20.4922C43.1006 19.8086 43.807 19.4668 44.6865 19.4668C45.5889 19.4668 46.293 19.7858 46.7988 20.4238L46.8604 19.6035H48.0156V26.8223C48.0156 27.7793 47.7308 28.5335 47.1611 29.085C46.596 29.6364 45.835 29.9121 44.8779 29.9121C44.3447 29.9121 43.8229 29.7982 43.3125 29.5703C42.8021 29.3424 42.4124 29.0303 42.1436 28.6338L42.7998 27.875C43.3421 28.5449 44.0052 28.8799 44.7891 28.8799C45.4043 28.8799 45.8828 28.7067 46.2246 28.3604C46.571 28.014 46.7441 27.5264 46.7441 26.8975V26.2617C46.2383 26.8451 45.5479 27.1367 44.6729 27.1367C43.807 27.1367 43.1051 26.7881 42.5674 26.0908C42.0342 25.3936 41.7676 24.4434 41.7676 23.2402ZM43.0391 23.3838C43.0391 24.2178 43.21 24.874 43.5518 25.3525C43.8936 25.8265 44.3721 26.0635 44.9873 26.0635C45.7848 26.0635 46.3704 25.7012 46.7441 24.9766V21.5996C46.3568 20.8932 45.7757 20.54 45.001 20.54C44.3857 20.54 43.9049 20.7793 43.5586 21.2578C43.2122 21.7363 43.0391 22.445 43.0391 23.3838Z" fill="white"/>
</g>
<defs>
<filter id="filter0_d" x="0" y="0" width="70" height="44" filterUnits="userSpaceOnUse" color-interpolation-filters="sRGB">
<feFlood flood-opacity="0" result="BackgroundImageFix"/>
<feColorMatrix in="SourceAlpha" type="matrix" values="0 0 0 0 0 0 0 0 0 0 0 0 0 0 0 0 0 0 127 0"/>
<feOffset/>
<feGaussianBlur stdDeviation="3.5"/>
<feColorMatrix type="matrix" values="0 0 0 0 0 0 0 0 0 0 0 0 0 0 0 0 0 0 0.14 0"/>
<feBlend mode="normal" in2="BackgroundImageFix" result="effect1_dropShadow"/>
<feBlend mode="normal" in="SourceGraphic" in2="effect1_dropShadow" result="shape"/>
</filter>
</defs>
</svg>