<svg width="77" height="44" viewBox="0 0 77 44" fill="none" xmlns="http://www.w3.org/2000/svg">
<g filter="url(#filter0_d)">
<rect x="7" y="7" width="63" height="30" rx="7" fill="#BB001B"/>
<path d="M27.7812 22.3994H23.4678V25.9268H28.4785V27H22.1553V17.0469H28.4102V18.127H23.4678V21.3262H27.7812V22.3994ZM31.1035 19.6035L31.1377 20.4238C31.68 19.7858 32.4115 19.4668 33.332 19.4668C34.3665 19.4668 35.0706 19.8633 35.4443 20.6562C35.6904 20.3008 36.0094 20.0137 36.4014 19.7949C36.7979 19.5762 37.265 19.4668 37.8027 19.4668C39.4251 19.4668 40.25 20.3258 40.2773 22.0439V27H39.0127V22.1191C39.0127 21.5905 38.8919 21.1963 38.6504 20.9365C38.4089 20.6722 38.0033 20.54 37.4336 20.54C36.9642 20.54 36.5745 20.6813 36.2646 20.9639C35.9548 21.2419 35.7747 21.6178 35.7246 22.0918V27H34.4531V22.1533C34.4531 21.0778 33.9268 20.54 32.874 20.54C32.0446 20.54 31.4772 20.8932 31.1719 21.5996V27H29.9072V19.6035H31.1035ZM46.7578 27C46.6849 26.8542 46.6257 26.5944 46.5801 26.2207C45.9922 26.8314 45.2904 27.1367 44.4746 27.1367C43.7454 27.1367 43.1462 26.9316 42.6768 26.5215C42.2119 26.1068 41.9795 25.5827 41.9795 24.9492C41.9795 24.179 42.2712 23.582 42.8545 23.1582C43.4424 22.7298 44.2673 22.5156 45.3291 22.5156H46.5596V21.9346C46.5596 21.4925 46.4274 21.1416 46.1631 20.8818C45.8988 20.6175 45.5091 20.4854 44.9941 20.4854C44.543 20.4854 44.1647 20.5993 43.8594 20.8271C43.554 21.055 43.4014 21.3307 43.4014 21.6543H42.1299C42.1299 21.2852 42.2598 20.9297 42.5195 20.5879C42.7839 20.2415 43.1393 19.9681 43.5859 19.7676C44.0371 19.5671 44.5316 19.4668 45.0693 19.4668C45.9215 19.4668 46.5892 19.681 47.0723 20.1094C47.5553 20.5332 47.806 21.1188 47.8242 21.8662V25.2705C47.8242 25.9495 47.9108 26.4896 48.084 26.8906V27H46.7578ZM44.6592 26.0361C45.0557 26.0361 45.4316 25.9336 45.7871 25.7285C46.1426 25.5234 46.4001 25.2568 46.5596 24.9287V23.4111H45.5684C44.0189 23.4111 43.2441 23.8646 43.2441 24.7715C43.2441 25.168 43.3763 25.4779 43.6406 25.7012C43.9049 25.9245 44.2445 26.0361 44.6592 26.0361ZM51.1807 27H49.916V19.6035H51.1807V27ZM49.8135 17.6416C49.8135 17.4365 49.875 17.2633 49.998 17.1221C50.1257 16.9808 50.3125 16.9102 50.5586 16.9102C50.8047 16.9102 50.9915 16.9808 51.1191 17.1221C51.2467 17.2633 51.3105 17.4365 51.3105 17.6416C51.3105 17.8467 51.2467 18.0176 51.1191 18.1543C50.9915 18.291 50.8047 18.3594 50.5586 18.3594C50.3125 18.3594 50.1257 18.291 49.998 18.1543C49.875 18.0176 49.8135 17.8467 49.8135 17.6416ZM54.585 27H53.3203V16.5H54.585V27Z" fill="white"/>
</g>
<defs>
<filter id="filter0_d" x="0" y="0" width="77" height="44" filterUnits="userSpaceOnUse" color-interpolation-filters="sRGB">
<feFlood flood-opacity="0" result="BackgroundImageFix"/>
<feColorMatrix in="SourceAlpha" type="matrix" values="0 0 0 0 0 0 0 0 0 0 0 0 0 0 0 0 0 0 127 0"/>
<feOffset/>
<feGaussianBlur stdDeviation="3.5"/>
<feColorMatrix type="matrix" values="0 0 0 0 0 0 0 0 0 0 0 0 0 0 0 0 0 0 0.14 0"/>
<feBlend mode="normal" in2="BackgroundImageFix" result="effect1_dropShadow"/>
<feBlend mode="normal" in="SourceGraphic" in2="effect1_dropShadow" result="shape"/>
</filter>
</defs>
</svg>