<svg width="95" height="44" viewBox="0 0 95 44" fill="none" xmlns="http://www.w3.org/2000/svg">
<g filter="url(#filter0_d)">
<rect x="7" y="7" width="81" height="30" rx="7" fill="#0A66C2"/>
<path d="M23.4746 25.9268H28.1914V27H22.1553V17.0469H23.4746V25.9268ZM30.8643 27H29.5996V19.6035H30.8643V27ZM29.4971 17.6416C29.4971 17.4365 29.5586 17.2633 29.6816 17.1221C29.8092 16.9808 29.9961 16.9102 30.2422 16.9102C30.4883 16.9102 30.6751 16.9808 30.8027 17.1221C30.9303 17.2633 30.9941 17.4365 30.9941 17.6416C30.9941 17.8467 30.9303 18.0176 30.8027 18.1543C30.6751 18.291 30.4883 18.3594 30.2422 18.3594C29.9961 18.3594 29.8092 18.291 29.6816 18.1543C29.5586 18.0176 29.4971 17.8467 29.4971 17.6416ZM34.0908 19.6035L34.1318 20.5332C34.6969 19.8223 35.4352 19.4668 36.3467 19.4668C37.9098 19.4668 38.6982 20.3486 38.7119 22.1123V27H37.4473V22.1055C37.4427 21.5723 37.3197 21.1781 37.0781 20.9229C36.8411 20.6676 36.4697 20.54 35.9639 20.54C35.5537 20.54 35.1937 20.6494 34.8838 20.8682C34.5739 21.0869 34.3324 21.374 34.1592 21.7295V27H32.8945V19.6035H34.0908ZM42.6836 23.5752L41.8906 24.4023V27H40.626V16.5H41.8906V22.8506L42.5674 22.0371L44.8711 19.6035H46.4092L43.5312 22.6934L46.7441 27H45.2607L42.6836 23.5752ZM50.6475 27.1367C49.6449 27.1367 48.8291 26.8086 48.2002 26.1523C47.5713 25.4915 47.2568 24.6097 47.2568 23.5068V23.2744C47.2568 22.5407 47.3958 21.8867 47.6738 21.3125C47.9564 20.7337 48.3483 20.2826 48.8496 19.959C49.3555 19.6309 49.9023 19.4668 50.4902 19.4668C51.4518 19.4668 52.1992 19.7835 52.7324 20.417C53.2656 21.0505 53.5322 21.9574 53.5322 23.1377V23.6641H48.5215C48.5397 24.3932 48.7516 24.9834 49.1572 25.4346C49.5674 25.8812 50.0869 26.1045 50.7158 26.1045C51.1624 26.1045 51.5407 26.0133 51.8506 25.8311C52.1605 25.6488 52.4316 25.4072 52.6641 25.1064L53.4365 25.708C52.8167 26.6605 51.887 27.1367 50.6475 27.1367ZM50.4902 20.5059C49.9798 20.5059 49.5514 20.6927 49.2051 21.0664C48.8587 21.4355 48.6445 21.9551 48.5625 22.625H52.2676V22.5293C52.2311 21.8867 52.0579 21.39 51.748 21.0391C51.4382 20.6836 51.0189 20.5059 50.4902 20.5059ZM54.6943 23.2402C54.6943 22.1055 54.9632 21.194 55.501 20.5059C56.0387 19.8132 56.7428 19.4668 57.6133 19.4668C58.4792 19.4668 59.165 19.763 59.6709 20.3555V16.5H60.9355V27H59.7734L59.7119 26.207C59.2061 26.8268 58.502 27.1367 57.5996 27.1367C56.7428 27.1367 56.0433 26.7858 55.501 26.084C54.9632 25.3822 54.6943 24.4661 54.6943 23.3359V23.2402ZM55.959 23.3838C55.959 24.2223 56.1322 24.8786 56.4785 25.3525C56.8249 25.8265 57.3034 26.0635 57.9141 26.0635C58.7161 26.0635 59.3018 25.7035 59.6709 24.9834V21.5859C59.2926 20.8887 58.7116 20.54 57.9277 20.54C57.3079 20.54 56.8249 20.7793 56.4785 21.2578C56.1322 21.7363 55.959 22.445 55.959 23.3838ZM64.5107 27H63.1982V17.0469H64.5107V27ZM67.915 19.6035L67.9561 20.5332C68.5212 19.8223 69.2594 19.4668 70.1709 19.4668C71.734 19.4668 72.5225 20.3486 72.5361 22.1123V27H71.2715V22.1055C71.2669 21.5723 71.1439 21.1781 70.9023 20.9229C70.6654 20.6676 70.2939 20.54 69.7881 20.54C69.3779 20.54 69.0179 20.6494 68.708 20.8682C68.3981 21.0869 68.1566 21.374 67.9834 21.7295V27H66.7188V19.6035H67.915Z" fill="white"/>
</g>
<defs>
<filter id="filter0_d" x="0" y="0" width="95" height="44" filterUnits="userSpaceOnUse" color-interpolation-filters="sRGB">
<feFlood flood-opacity="0" result="BackgroundImageFix"/>
<feColorMatrix in="SourceAlpha" type="matrix" values="0 0 0 0 0 0 0 0 0 0 0 0 0 0 0 0 0 0 127 0"/>
<feOffset/>
<feGaussianBlur stdDeviation="3.5"/>
<feColorMatrix type="matrix" values="0 0 0 0 0 0 0 0 0 0 0 0 0 0 0 0 0 0 0.14 0"/>
<feBlend mode="normal" in2="BackgroundImageFix" result="effect1_dropShadow"/>
<feBlend mode="normal" in="SourceGraphic" in2="effect1_dropShadow" result="shape"/>
</filter>
</defs>
</svg>